<?xml version="1.0" encoding="UTF-8" standalone="no"?>
<!-- Created with Inkscape (http://www.inkscape.org/) -->

<svg
   version="1.1"
   id="svg1"
   width="324"
   height="256"
   viewBox="0 0 324 256"
   sodipodi:docname="logo.svg"
   inkscape:version="1.4.2 (ebf0e94, 2025-05-08)"
   xmlns:inkscape="http://www.inkscape.org/namespaces/inkscape"
   xmlns:sodipodi="http://sodipodi.sourceforge.net/DTD/sodipodi-0.dtd"
   xmlns="http://www.w3.org/2000/svg"
   xmlns:svg="http://www.w3.org/2000/svg">
  <defs
     id="defs1" />
  <sodipodi:namedview
     id="namedview1"
     pagecolor="#ffffff"
     bordercolor="#000000"
     borderopacity="0.25"
     inkscape:showpageshadow="2"
     inkscape:pageopacity="0.0"
     inkscape:pagecheckerboard="0"
     inkscape:deskcolor="#d1d1d1"
     inkscape:zoom="1.5019531"
     inkscape:cx="151.80234"
     inkscape:cy="124.17165"
     inkscape:window-width="1036"
     inkscape:window-height="971"
     inkscape:window-x="26"
     inkscape:window-y="23"
     inkscape:window-maximized="0"
     inkscape:current-layer="g1" />
  <g
     inkscape:groupmode="layer"
     inkscape:label="Image"
     id="g1">
    <path
       style="fill:#000000"
       d="m 66.246107,243.77952 c -2.47065,-1.19155 -2.63351,-1.62598 -1.36187,-3.63276 0.67583,-1.06652 1.318,-1.1068 3.0309,-0.19008 1.195356,0.63973 3.615076,1.02369 5.377166,0.85324 4.71196,-0.4558 4.10285,-2.99142 -1.02383,-4.26208 -7.751846,-1.92132 -10.417026,-6.40318 -6.272366,-10.54783 1.49741,-1.49742 3.319266,-1.99615 7.249996,-1.98469 5.96008,0.0174 8.31339,1.07413 7.44303,3.34225 -0.47962,1.24986 -1.62067,1.43835 -5.74821,0.9495 -4.64953,-0.55067 -5.11502,-0.42932 -4.79178,1.24914 0.23279,1.20874 1.88094,2.29998 4.71159,3.11953 2.39447,0.69326 4.97947,1.77993 5.74447,2.41482 2.1848,1.81322 1.71103,6.57181 -0.83161,8.35275 -2.54018,1.7792 -10.14364,1.96818 -13.527486,0.33621 z m 23.284786,-1.8831 c -3.05707,-2.68414 -3.53479,-3.70817 -3.53479,-7.57693 0,-3.61087 0.56356,-5.03689 2.92307,-7.3964 2.47053,-2.47053 3.71677,-2.92308 8.04966,-2.92308 6.113187,0 10.200607,1.89025 11.832587,5.47206 3.68151,8.08002 -1.94037,15.52794 -11.720867,15.52794 -3.06478,0 -4.85134,-0.73444 -7.54966,-3.10359 z m 13.106437,-3.44673 c 4.43259,-4.4326 1.39479,-10.44968 -5.275657,-10.44968 -5.81804,0 -8.47068,6.96089 -4.17701,10.96104 2.95333,2.75145 6.37495,2.56635 9.452667,-0.51136 z m 12.35878,-3.94968 v -10.5 h 2.5 c 2.47059,0 2.5,0.1 2.5,8.5 v 8.5 h 5.5 c 4.83333,0 5.5,0.24242 5.5,2 0,1.83333 -0.66667,2 -8,2 h -8 z m 22.75,8.38491 c -2.61966,-1.95448 -2.75,-2.45063 -2.75,-10.46832 0,-8.31103 0.0314,-8.41659 2.5,-8.41659 2.43836,0 2.5,0.18 2.5,7.3 0,7.78085 0.91577,9.7 4.62857,9.7 4.02205,0 5.37143,-2.53008 5.37143,-10.07143 0,-6.72381 0.0739,-6.92857 2.5,-6.92857 2.44199,0 2.5,0.17212 2.5,7.41821 0,4.08002 -0.27953,8.14666 -0.62118,9.03699 -1.71396,4.46649 -11.90334,5.95531 -16.62882,2.42971 z m 28.25,-6.38491 v -8.5 h -3.5 c -2.83333,0 -3.5,-0.38095 -3.5,-2 0,-1.85965 0.66667,-2 9.5,-2 8.83333,0 9.5,0.14035 9.5,2 0,1.61905 -0.66667,2 -3.5,2 h -3.5 v 8.5 c 0,8.4 -0.0294,8.5 -2.5,8.5 -2.47059,0 -2.5,-0.1 -2.5,-8.5 z m 16,-2 v -10.5 h 2.5 2.5 v 10.5 10.5 h -2.5 -2.5 z m 13.4,7.1 c -7.30187,-7.30187 -2.29677,-17.6 8.55395,-17.6 4.74815,0 9.51525,2.13967 11.01641,4.94461 2.17026,4.05517 1.23465,9.05038 -2.37036,12.65539 -2.99487,2.99487 -4.01961,3.4 -8.6,3.4 -4.58039,0 -5.60513,-0.40513 -8.6,-3.4 z m 13.56104,-2.78856 c 2.58778,-2.77765 2.60312,-6.24728 0.039,-8.81144 -3.94226,-3.94226 -12,-1.22582 -12,4.04545 0,2.83547 4.39215,6.95455 7.41559,6.95455 1.37857,0 3.42403,-0.98485 4.54545,-2.18856 z m 12.03896,-4.31144 c 0,-10.22224 0.0595,-10.5 2.25,-10.49993 1.50605,4e-5 3.94728,1.96743 7.38321,5.95012 2.82326,3.27253 5.41076,5.6725 5.75,5.33327 0.33923,-0.33924 0.61679,-3.01679 0.61679,-5.95013 0,-5.02222 0.14583,-5.33333 2.5,-5.33333 h 2.5 v 10.5 c 0,10.22014 -0.06,10.50019 -2.25,10.50703 -1.49064,0.005 -4.17591,-2.10468 -7.9565,-6.25 l -5.7065,-6.25703 -0.0435,6.25 c -0.0417,5.9884 -0.14814,6.25 -2.5435,6.25 h -2.5 z m 28.17576,9.44137 c -2.89082,-1.15901 -2.58273,-4.62387 0.36255,-4.07739 1.07893,0.20018 3.7203,0.42518 5.86972,0.5 5.87276,0.2044 5.59952,-1.98729 -0.47256,-3.7905 -6.3555,-1.88738 -7.93547,-3.12101 -7.93547,-6.19592 0,-4.09418 3.32266,-6.37954 9.25,-6.36225 5.78321,0.0169 8.23604,1.03219 7.53501,3.11904 -0.31089,0.92548 -2.17273,1.36565 -5.77646,1.36565 -7.29778,0 -7.48151,1.88689 -0.40535,4.16286 6.33174,2.03655 7.99769,3.80688 7.06803,7.51092 -1.06053,4.22549 -9.33522,6.23741 -15.49547,3.76759 z m -144.95852,-42.19137 0.28275,-11.25 8.06749,-0.28749 c 6.95655,-0.24791 8.43687,0.003 10.75,1.82258 2.81324,2.21289 3.50077,5.74666 1.50615,7.74128 -0.90183,0.90183 -0.76765,1.62801 0.57495,3.11157 2.45898,2.71713 1.74157,7.24348 -1.39858,8.82415 -1.43362,0.72164 -6.24631,1.26471 -11.28275,1.27317 l -8.78276,0.0147 z m 16.60311,5.96646 c 1.93221,-2.32816 -0.3829,-4.07702 -5.492,-4.14871 -4.5434,-0.0637 -4.84702,0.0945 -5.14477,2.68225 -0.30743,2.67185 -0.17592,2.75 4.62755,2.75 2.80413,0 5.40504,-0.55554 6.00922,-1.28354 z m -3.07035,-8.34675 c 3.05213,-0.81794 2.95182,-4.15546 -0.14829,-4.93354 -4.09735,-1.02837 -7.0741,-0.13006 -7.41113,2.23649 -0.2279,1.60027 0.29901,2.28889 2,2.61382 1.27018,0.24264 2.53442,0.49629 2.80942,0.56368 0.275,0.0674 1.5125,-0.14881 2.75,-0.48045 z m 19.75,12.42247 c -3.78084,-2.16831 -4.43566,-4.08939 -4.4682,-13.1086 l -0.0318,-8.81642 2.75,0.31642 c 2.71733,0.31266 2.75332,0.41146 3.02979,8.31642 0.21175,6.0545 0.6838,8.30398 1.94113,9.25 2.40055,1.80618 4.98967,1.53941 7.27908,-0.75 1.64444,-1.64444 2,-3.33333 2,-9.5 0,-7.33333 0.0556,-7.5 2.5,-7.5 2.48241,0 2.5,0.0636 2.5,9.04545 0,8.27049 -0.21029,9.25575 -2.45455,11.5 -1.99917,1.99918 -3.43696,2.44891 -7.75,2.42414 -2.9125,-0.0167 -6.19545,-0.54656 -7.29545,-1.17741 z m 25.5,-10.3586 v -11.56642 l 2.75,0.31642 2.75,0.31642 0.28275,11.25 0.28275,11.25 h -3.03275 -3.03275 z m 13,0.0664 v -11.5 h 3 3 v 9.5 9.5 h 6.5 c 5.83333,0 6.5,0.20513 6.5,2 0,1.85965 -0.66667,2 -9.5,2 h -9.5 z m 24,0.0995 v -11.59948 h 7.03212 c 11.81972,0 17.53751,4.05306 17.32183,12.27859 -0.0785,2.99452 -0.85267,4.68193 -3.2467,7.07676 -2.98559,2.9866 -3.59501,3.16222 -12.12542,3.49415 l -8.98183,0.3495 z m 16.53726,5.26172 c 2.53432,-2.59161 2.71391,-6.27219 0.44668,-9.1545 -1.79975,-2.28802 -2.89132,-2.70672 -7.05652,-2.70672 h -4.92742 v 6.33333 c 0,3.48334 0.3375,6.67638 0.75,7.09564 1.14066,1.15939 9.27672,-0.0231 10.78726,-1.56775 z M 82.318643,175.2495 c -12.86821,-5.41133 -19.375696,-15.75651 -18.041706,-28.68157 1.26992,-12.30434 9.781096,-20.99913 22.936186,-23.43098 18.792667,-3.47401 35.693417,8.78289 35.761027,25.93492 0.0437,11.07964 -5.08196,19.89339 -14.32923,24.63972 -6.77303,3.47639 -19.893847,4.24288 -26.326277,1.53791 z M 101.4961,164.23156 c 5.98997,-3.05004 8.50001,-7.52344 8.50001,-15.14877 0,-3.29953 -0.70166,-5.84285 -2.25808,-8.1849 -2.60785,-3.92422 -9.773397,-7.89788 -14.241927,-7.89788 -4.02079,0 -11.3752,3.80246 -13.80142,7.13576 -2.4175,3.32132 -3.27942,10.57425 -1.79216,15.08072 1.44661,4.38325 5.77276,8.54792 10.73084,10.33028 4.17286,1.50009 8.12799,1.09568 12.862737,-1.31521 z m -89.5,-14.18383 v -26.04772 h 15.63398 c 17.876603,0 22.221501,0.93244 26.371958,5.65954 7.695189,8.76434 5.476859,21.49477 -4.727206,27.12819 -3.214558,1.77467 -6.392764,2.42473 -14.17191,2.89866 l -10.028046,0.61093 -0.289388,7.60134 -0.289388,7.60134 -6.25,0.29772 -6.25,0.29771 z m 31.545455,-3.50227 c 3.128273,-3.12827 3.128273,-6.96263 0,-10.0909 -2.199281,-2.19929 -3.291246,-2.45455 -10.5,-2.45455 H 24.9961 v 7.5 7.5 h 8.045455 c 7.208754,0 8.300719,-0.25526 10.5,-2.45455 z m 96.187465,22.24694 c -1.40609,-4.01081 -5.13345,-15.16739 -8.28302,-24.79239 -3.14958,-9.625 -5.93741,-18.0625 -6.19518,-18.75 -0.34484,-0.91969 1.24515,-1.25 6.01698,-1.25 6.15286,0 6.5398,0.14112 7.54064,2.75 1.33303,3.47483 7.89684,24.83382 8.7583,28.5 0.3554,1.5125 0.95469,2.75 1.33174,2.75 0.37706,0 3.12682,-7.66831 6.11059,-17.0407 l 5.42503,-17.0407 6.4909,0.2907 6.4909,0.2907 5.44431,16.7958 c 2.99437,9.23769 5.82203,16.41807 6.2837,15.9564 0.46167,-0.46167 3.01572,-8.01978 5.67566,-16.7958 l 4.83627,-15.9564 6.79575,-0.29855 c 6.19675,-0.27224 6.734,-0.14002 6.09503,1.5 -0.38541,0.9892 -4.17128,12.59855 -8.41305,25.79855 l -7.71231,24 -6.96257,0.27687 -6.96258,0.27688 -4.89826,-14.77688 c -2.69404,-8.12728 -5.32688,-15.90187 -5.85075,-17.27687 -0.82843,-2.1744 -1.69205,-0.28591 -6.63094,14.5 l -5.67845,17 -6.57608,0.29239 -6.57608,0.29239 z m 76.26709,-18.79239 v -26 h 20.5 20.5 v 5 5 h -14.5 -14.5 v 4.97012 4.97013 l 12.75,0.27987 12.75,0.27988 0.30355,4.71972 0.30356,4.71973 -12.80356,0.28027 -12.80355,0.28028 v 5.5 5.5 l 14.25,0.27746 14.25,0.27745 v 4.97255 4.97254 h -20.5 -20.5 z m 51,-0.0631 v -26.06313 l 17.82726,0.31313 c 17.10968,0.30052 17.9757,0.41375 21.51484,2.81312 4.27917,2.90107 7.66742,9.14238 7.63594,14.06572 -0.034,5.31301 -3.39158,11.65571 -7.43212,14.03969 -1.95025,1.15068 -3.54592,2.29199 -3.54592,2.53624 0,0.24425 2.7,4.07832 6,8.52014 3.3,4.44183 6,8.47254 6,8.95713 0,0.48459 -3.0458,0.88108 -6.76843,0.88108 h -6.76844 l -5.4598,-8.08697 c -3.00289,-4.44783 -6.2634,-8.51703 -7.24558,-9.04268 -0.98218,-0.52564 -3.35447,-0.66143 -5.27176,-0.30174 l -3.48599,0.65395 v 8.38871 8.38871 h -6.5 -6.5 z m 32.08843,-3.79776 c 2.75758,-3.40547 2.45883,-7.56349 -0.72329,-10.06654 -2.15835,-1.69778 -4.05724,-2.0726 -10.5,-2.0726 h -7.86514 v 7.60262 7.60261 l 8.58843,-0.35271 c 7.59137,-0.31176 8.81035,-0.62677 10.5,-2.7134 z M 34.230765,72.358383 34.4961,43.716766 60.996097,28.886957 87.496103,14.057148 l 76.291117,-0.02857 76.29111,-0.02857 24.20889,13.861626 c 13.31489,7.623894 25.66854,14.711394 27.45257,15.75 3.06167,1.782417 3.24403,2.211007 3.25,7.638374 l 0.006,5.75 h -16.58752 -16.58751 l -6.25859,-3.5 -6.25858,-3.5 H 169.58642 89.869243 L 78.932513,56.12458 67.995787,62.249151 V 81.624572 101 H 50.980765 33.965429 Z M 86.996103,83.5 V 66 h 104.000007 104 V 83.5 101 h -104 -104.000007 z"
       id="path1" />
  </g>
</svg>
